<?xml version="1.0" encoding="UTF-8" standalone="no"?>
<!DOCTYPE svg PUBLIC "-//W3C//DTD SVG 1.1//EN"
 "http://www.w3.org/Graphics/SVG/1.1/DTD/svg11.dtd">
<!-- Generated by graphviz version 2.40.1 (20161225.0304)
 -->
<!-- Title: %3 Pages: 1 -->
<svg width="358pt" height="188pt"
 viewBox="0.00 0.00 358.10 188.00" xmlns="http://www.w3.org/2000/svg" xmlns:xlink="http://www.w3.org/1999/xlink">
<g id="graph0" class="graph" transform="scale(1 1) rotate(0) translate(4 184)">
<title>%3</title>
<polygon fill="#ffffff" stroke="transparent" points="-4,4 -4,-184 354.1006,-184 354.1006,4 -4,4"/>
<!-- SeamstressJS&#45;dev&#45;integraptions -->
<g id="node1" class="node">
<title>SeamstressJS&#45;dev&#45;integraptions</title>
<ellipse fill="none" stroke="#000000" cx="167.9276" cy="-162" rx="122.6953" ry="18"/>
<text text-anchor="middle" x="167.9276" y="-157.8" font-family="Times,serif" font-size="14.00" fill="#000000">SeamstressJS&#45;dev&#45;integraptions</text>
</g>
<!-- SeamstressJS&#45;core -->
<g id="node2" class="node">
<title>SeamstressJS&#45;core</title>
<ellipse fill="none" stroke="#000000" cx="75.9276" cy="-90" rx="75.8553" ry="18"/>
<text text-anchor="middle" x="75.9276" y="-85.8" font-family="Times,serif" font-size="14.00" fill="#000000">SeamstressJS&#45;core</text>
</g>
<!-- SeamstressJS&#45;dev&#45;integraptions&#45;&gt;SeamstressJS&#45;core -->
<g id="edge1" class="edge">
<title>SeamstressJS&#45;dev&#45;integraptions&#45;&gt;SeamstressJS&#45;core</title>
<path fill="none" stroke="#000000" d="M145.186,-144.2022C133.4007,-134.9789 118.8513,-123.5925 106.1347,-113.6403"/>
<polygon fill="#000000" stroke="#000000" points="108.1223,-110.7514 98.0901,-107.3446 103.8081,-116.264 108.1223,-110.7514"/>
</g>
<!-- SeamstressJS&#45;adapters -->
<g id="node3" class="node">
<title>SeamstressJS&#45;adapters</title>
<ellipse fill="none" stroke="#000000" cx="259.9276" cy="-90" rx="90.3463" ry="18"/>
<text text-anchor="middle" x="259.9276" y="-85.8" font-family="Times,serif" font-size="14.00" fill="#000000">SeamstressJS&#45;adapters</text>
</g>
<!-- SeamstressJS&#45;dev&#45;integraptions&#45;&gt;SeamstressJS&#45;adapters -->
<g id="edge2" class="edge">
<title>SeamstressJS&#45;dev&#45;integraptions&#45;&gt;SeamstressJS&#45;adapters</title>
<path fill="none" stroke="#000000" d="M190.6692,-144.2022C202.3672,-135.0473 216.7885,-123.761 229.4377,-113.8617"/>
<polygon fill="#000000" stroke="#000000" points="231.7296,-116.5124 237.4476,-107.593 227.4155,-110.9999 231.7296,-116.5124"/>
</g>
<!-- Jimp -->
<g id="node4" class="node">
<title>Jimp</title>
<ellipse fill="none" stroke="#000000" cx="167.9276" cy="-18" rx="27.113" ry="18"/>
<text text-anchor="middle" x="167.9276" y="-13.8" font-family="Times,serif" font-size="14.00" fill="#000000">Jimp</text>
</g>
<!-- SeamstressJS&#45;core&#45;&gt;Jimp -->
<g id="edge3" class="edge">
<title>SeamstressJS&#45;core&#45;&gt;Jimp</title>
<path fill="none" stroke="#000000" d="M98.1982,-72.5708C111.4099,-62.2312 128.2178,-49.0772 142.0213,-38.2745"/>
<polygon fill="#000000" stroke="#000000" points="144.4507,-40.8177 150.1686,-31.8983 140.1365,-35.3052 144.4507,-40.8177"/>
</g>
<!-- SeamstressJS&#45;adapters&#45;&gt;Jimp -->
<g id="edge4" class="edge">
<title>SeamstressJS&#45;adapters&#45;&gt;Jimp</title>
<path fill="none" stroke="#000000" d="M237.186,-72.2022C224.0546,-61.9255 207.4917,-48.9632 193.8559,-38.2917"/>
<polygon fill="#000000" stroke="#000000" points="195.833,-35.3946 185.8008,-31.9877 191.5188,-40.9071 195.833,-35.3946"/>
</g>
</g>
</svg>
